<svg height="480pt" viewBox="0 0 480 480" width="480pt" xmlns="http://www.w3.org/2000/svg"><path d="m472 296v32h-464v-32zm0 0" fill="#ffe477"/><path d="m462 224 10 72h-104l-10-72zm0 0" fill="#57a4ff"/><path d="m452 152 10 72h-104l-10-72zm0 0" fill="#2488ff"/><path d="m442 79.761719 10 72.238281h-104l-10-72h102zm0 0" fill="#006df0"/><path d="m432 8 10 71.761719-2 .238281h-102l-10-72zm0 0" fill="#005ece"/><path d="m384 456v16h-288v-16c.027344-8.824219 7.175781-15.972656 16-16h256c8.824219.027344 15.972656 7.175781 16 16zm0 0" fill="#ffe477"/><path d="m358 224 10 72h-128v-72zm0 0" fill="#57a4ff"/><path d="m348 152 10 72h-118v-72zm0 0" fill="#2488ff"/><path d="m338 80 10 72h-108v-72zm0 0" fill="#006df0"/><path d="m328 8 10 72h-98v-72zm0 0" fill="#005ece"/><path d="m288 440h-96c.015625-20.671875 13.261719-39.007812 32.878906-45.519531 9.808594-3.308594 20.433594-3.308594 30.242188 0 19.617187 6.511719 32.863281 24.847656 32.878906 45.519531zm0 0" fill="#a78966"/><path d="m256 328v64l-.878906 2.480469c-9.808594-3.308594-20.433594-3.308594-30.242188 0l-.878906-2.480469v-64zm0 0" fill="#c6c5ca"/><path d="m240 224v72h-128l10-72zm0 0" fill="#57a4ff"/><path d="m240 152v72h-118l10-72zm0 0" fill="#2488ff"/><path d="m240 80v72h-108l10-72zm0 0" fill="#006df0"/><path d="m240 8v72h-98l10-72zm0 0" fill="#005ece"/><path d="m152 8-10 72h-102l-2-.238281 10-71.761719zm0 0" fill="#005ece"/><path d="m142 80-10 72h-104l10-72.238281 2 .238281zm0 0" fill="#006df0"/><path d="m132 152-10 72h-104l10-72zm0 0" fill="#2488ff"/><path d="m122 224-10 72h-104l10-72zm0 0" fill="#57a4ff"/><path d="m479.878906 295.414062c0-.175781.066406-.34375.042969-.519531l-40-288c-.550781-3.949219-3.929687-6.894531-7.921875-6.894531h-384c-3.992188 0-7.371094 2.945312-7.921875 6.894531l-40 288c0 .175781.050781.34375.042969.519531-.007813.179688-.121094.378907-.121094.585938v32c0 4.417969 3.582031 8 8 8h208v53.480469c-16.894531 8.050781-28.660156 24-31.359375 42.519531h-72.640625c-13.253906 0-24 10.746094-24 24v16c0 4.417969 3.582031 8 8 8h288c4.417969 0 8-3.582031 8-8v-16c0-13.253906-10.746094-24-24-24h-72.640625c-2.699219-18.519531-14.464844-34.46875-31.359375-42.519531v-53.480469h208c4.417969 0 8-3.582031 8-8v-32c0-.207031-.105469-.375-.121094-.585938zm-454.910156-63.414062h87.832031l-7.777343 56h-87.839844zm417.839844-88h-87.847656l-7.761719-56h87.832031zm-194.808594 16h93.039062l7.777344 56h-100.816406zm-16 56h-100.800781l7.777343-56h93.023438zm125.183594-56h87.847656l7.777344 56h-87.847656zm-18.398438-16h-90.785156v-56h83.039062zm-90.785156-72v-56h73.039062l7.777344 56zm-16 0h-80.800781l7.777343-56h73.023438zm0 16v56h-90.816406l7.777344-56zm-106.960938 56h-87.847656l7.777344-56h87.832031zm-2.222656 16-7.777344 56h-87.839843l7.777343-56zm6.144532 72h103.039062v56h-110.816406zm119.039062 0h103.039062l7.777344 56h-110.816406zm126.960938 56-7.761719-56h87.832031l7.785156 56zm57.839843-216h-87.839843l-7.777344-56h87.847656zm-377.832031-56h87.847656l-7.777344 56h-87.839843zm321.03125 440v8h-272v-8c0-4.417969 3.582031-8 8-8h256c4.417969 0 8 3.582031 8 8zm-96.800781-24h-78.398438c3.785157-18.644531 20.175781-32.039062 39.199219-32.039062s35.414062 13.394531 39.199219 32.039062zm-31.199219-47.359375c-5.300781-.855469-10.699219-.855469-16 0v-48.640625h16zm216-64.640625h-448v-16h448zm0 0"/></svg>